<svg width="47" height="30" viewBox="0 0 47 30" fill="none" xmlns="http://www.w3.org/2000/svg">
<path opacity="0.07" d="M43.058 -6.10352e-05H3.81927C1.73488 -6.10352e-05 0.140625 1.59401 0.140625 3.67857V25.7504C0.140625 27.8349 1.85752 29.429 3.81927 29.429H43.058C45.1424 29.429 46.7366 27.8349 46.7366 25.7504V3.67857C46.7366 1.59401 45.0197 -6.10352e-05 43.058 -6.10352e-05Z" fill="black"/>
<path d="M43.0582 1.2262C44.4072 1.2262 45.5105 2.32979 45.5105 3.67862V25.7504C45.5105 27.0992 44.4072 28.2028 43.0582 28.2028H3.81948C2.47049 28.2028 1.36719 27.0992 1.36719 25.7504V3.67862C1.36719 2.32979 2.47049 1.2262 3.81948 1.2262H43.0582Z" fill="white"/>
<path d="M18.5348 23.2979C23.2755 23.2979 27.118 19.4549 27.118 14.7144C27.118 9.97387 23.2755 6.13092 18.5348 6.13092C13.7942 6.13092 9.95117 9.97387 9.95117 14.7144C9.95117 19.4549 13.7942 23.2979 18.5348 23.2979Z" fill="#CE4549"/>
<path d="M28.3434 23.2979C33.0841 23.2979 36.927 19.4549 36.927 14.7144C36.927 9.97387 33.0841 6.13092 28.3434 6.13092C23.6028 6.13092 19.7598 9.97387 19.7598 14.7144C19.7598 19.4549 23.6028 23.2979 28.3434 23.2979Z" fill="#FFAA2E"/>
<path d="M27.1171 14.7144C27.1171 11.7715 25.6458 9.19649 23.4384 7.72504C21.2314 9.31909 19.7598 11.8941 19.7598 14.7144C19.7598 17.5347 21.2314 20.2324 23.4384 21.7038C25.6458 20.2324 27.1171 17.6573 27.1171 14.7144Z" fill="#FF7733"/>
<path d="M14.8555 13.4882H32.0223V15.9406H14.8555V13.4882Z" fill="white"/>
</svg>
