<svg width="47" height="30" viewBox="0 0 47 30" fill="none" xmlns="http://www.w3.org/2000/svg">
<mask id="mask0_137_640" style="mask-type:luminance" maskUnits="userSpaceOnUse" x="0" y="0" width="47" height="30">
<path d="M46.596 0H0V29.429H46.596V0Z" fill="white"/>
</mask>
<g mask="url(#mask0_137_640)">
<path opacity="0.07" d="M42.9174 0H3.67863C1.59407 0 0 1.59407 0 3.67863V25.7504C0 27.835 1.71669 29.429 3.67863 29.429H42.9174C45.0018 29.429 46.596 27.835 46.596 25.7504V3.67863C46.596 1.59407 44.8791 0 42.9174 0Z" fill="black"/>
<path d="M42.9177 1.2262C44.2667 1.2262 45.37 2.32979 45.37 3.67862V25.7504C45.37 27.0992 44.2667 28.2028 42.9177 28.2028H3.67898C2.33015 28.2028 1.22656 27.0992 1.22656 25.7504V3.67862C1.22656 2.32979 2.33015 1.2262 3.67898 1.2262H42.9177Z" fill="white"/>
<path d="M34.7021 12.3847H34.3342C33.8437 13.6109 33.4759 14.224 33.108 16.0633H35.4378C35.07 14.224 35.07 13.3656 34.7021 12.3847ZM38.2581 19.6193H36.1735C36.0509 19.6193 36.0509 19.6193 35.9283 19.4967L35.6831 18.3931L35.5604 18.1479H32.6175C32.4949 18.1479 32.3723 18.1479 32.3723 18.3931L32.0044 19.4967C32.0044 19.6193 31.8818 19.6193 31.8818 19.6193H29.3068L29.552 19.0062L33.108 10.668C33.108 10.0549 33.4759 9.80963 34.089 9.80963H35.9283C36.0509 9.80963 36.1735 9.80963 36.1735 10.0549L37.8902 18.0252C38.0128 18.5157 38.1355 18.8836 38.1355 19.3741C38.2581 19.4967 38.2581 19.4967 38.2581 19.6193ZM21.8269 19.2515L22.3174 17.0443C22.44 17.0443 22.5626 17.1669 22.5626 17.1669C23.4209 17.5347 24.2793 17.78 25.1376 17.6574C25.3829 17.6574 25.7508 17.5347 25.996 17.4121C26.6091 17.1669 26.6091 16.5538 26.1186 16.0633C25.8734 15.8181 25.5055 15.6955 25.1376 15.4502C24.6472 15.205 24.1567 14.9597 23.7888 14.5919C22.3174 13.3656 22.8079 11.649 23.6662 10.7906C24.4019 10.3001 24.7698 9.80963 25.7508 9.80963C27.2222 9.80963 28.8163 9.80963 29.552 10.0549H29.6746C29.552 10.7906 29.4294 11.4037 29.1841 12.1395C28.571 11.8942 27.958 11.649 27.3448 11.649C26.977 11.649 26.6091 11.649 26.2412 11.7716C25.996 11.7716 25.8734 11.8942 25.7508 12.0168C25.5055 12.262 25.5055 12.6299 25.7508 12.8751L26.3639 13.3656C26.8544 13.6109 27.3448 13.8561 27.7127 14.1014C28.3258 14.4692 28.9389 15.0823 29.0615 15.8181C29.3068 16.9216 28.9389 17.9026 27.958 18.6383C27.3448 19.1288 27.0996 19.3741 26.2412 19.3741C24.5245 19.3741 23.1757 19.4967 22.0721 19.1288C21.9495 19.3741 21.9495 19.3741 21.8269 19.2515ZM17.5352 19.6193C17.6578 18.761 17.6578 18.761 17.7804 18.3931C18.3935 15.6955 19.0066 12.8752 19.4971 10.1775C19.6197 9.93227 19.6197 9.80963 19.8649 9.80963H22.0721C21.8269 11.2811 21.5816 12.3847 21.2138 13.7335C20.8459 15.5728 20.4781 17.4121 19.9876 19.2515C19.9876 19.4967 19.8649 19.4967 19.6197 19.4967" fill="#142688"/>
<path d="M6.13086 10.0549C6.13086 9.93227 6.37613 9.80963 6.49872 9.80963H10.6679C11.281 9.80963 11.7715 10.1775 11.8941 10.7906L12.9976 16.1859C12.9976 16.3086 12.9976 16.3086 13.1203 16.4311C13.1203 16.3086 13.2429 16.3086 13.2429 16.3086L15.8179 10.0549C15.6953 9.93227 15.8179 9.80963 15.9406 9.80963H18.5156C18.5156 9.93227 18.5156 9.93227 18.393 10.0549L14.5917 19.0062C14.4691 19.2515 14.4691 19.3741 14.3465 19.4967C14.2239 19.6193 13.9786 19.4967 13.7334 19.4967H11.8941C11.7715 19.4967 11.6488 19.4967 11.6488 19.2515L9.68687 11.649C9.44164 11.4037 9.07377 11.0359 8.58332 10.9132C7.84759 10.5454 6.49872 10.3001 6.25349 10.3001L6.13086 10.0549Z" fill="#142688"/>
</g>
</svg>
