<svg width="47" height="30" viewBox="0 0 47 30" fill="none" xmlns="http://www.w3.org/2000/svg">
<path d="M3.15137 -6.10352e-05C1.56712 -6.10352e-05 0.283203 1.1207 0.283203 2.50386V26.9251C0.283203 28.3082 1.56712 29.429 3.15137 29.429H43.8112C45.5056 29.429 46.8792 28.3082 46.8792 26.9251V2.50386C46.8792 1.1207 45.5056 -6.10352e-05 43.8112 -6.10352e-05H3.15137ZM21.6718 16.3147L19.786 12.2988H17.2382V18.0841L14.6791 12.2988H12.6385L9.92509 18.3612H11.5177L12.1196 16.8505H15.1963L15.807 18.3539H18.8283V13.8169L20.9706 18.3649H22.3722L24.3281 13.8917V18.3698H26.1538V12.2988H23.5626L21.6718 16.3147ZM12.7023 15.5655L13.6221 13.5348L14.5794 15.5655H12.7023ZM33.8223 14.2326L32.1046 12.3001H27.2033V18.3502H31.9073L33.766 16.3944L35.5822 18.3637H36.98V17.78L34.7938 15.2994L36.98 12.9781V12.2927H35.5968L33.8223 14.2326ZM31.098 17.1019H28.7755V15.8426H30.9642V14.8003H28.7755V13.5606L31.2941 13.568L32.8012 15.2994L31.098 17.1019ZM38.2956 13.14L36.1999 15.3276L38.2956 17.5151V19.6193H36.98V19.6181H34.931L33.8165 18.3134L32.6243 19.6181H26.6836V19.6193H23.5393V19.5617H23.5126V18.9167L23.1914 19.6168H20.4138L20.0655 18.8688V19.6168H14.8751L14.2607 18.1086H13.2208L12.5722 19.6168H9.91509V19.6193H8.86685V17.3471L9.91509 15.3276V15.3324L11.8539 11.037H15.6306L16.1603 12.2559V11.0469H20.7817L21.7982 13.0995L22.7914 11.0383H26.4225V11.0358H26.946V11.037L26.4225 11.0383V11.0604H32.7436L33.907 12.3246L35.0991 11.0604H36.98V11.0358H38.2956V13.14Z" fill="#3086C8"/>
</svg>
