<svg width="24" height="24" viewBox="0 0 24 24" fill="none" xmlns="http://www.w3.org/2000/svg">
<path d="M11.7813 0C9.45114 0 7.17336 0.690958 5.23594 1.9855C3.29853 3.28004 1.78849 5.12002 0.8968 7.27276C0.00510463 9.4255 -0.228203 11.7943 0.226379 14.0797C0.680961 16.365 1.80302 18.4642 3.45065 20.1119C5.09829 21.7595 7.19751 22.8815 9.48285 23.3361C11.7682 23.7907 14.137 23.5574 16.2897 22.6657C18.4425 21.774 20.2825 20.264 21.577 18.3266C22.8715 16.3891 23.5625 14.1114 23.5625 11.7812C23.5565 8.65851 22.3134 5.66538 20.1052 3.45726C17.8971 1.24915 14.904 0.00598802 11.7813 0ZM18.125 12.6875H11.7813C11.5409 12.6875 11.3104 12.592 11.1404 12.4221C10.9705 12.2521 10.875 12.0216 10.875 11.7812V5.4375C10.875 5.19715 10.9705 4.96664 11.1404 4.79668C11.3104 4.62673 11.5409 4.53125 11.7813 4.53125C12.0216 4.53125 12.2521 4.62673 12.4221 4.79668C12.592 4.96664 12.6875 5.19715 12.6875 5.4375V10.875H18.125C18.3654 10.875 18.5959 10.9705 18.7658 11.1404C18.9358 11.3104 19.0313 11.5409 19.0313 11.7812C19.0313 12.0216 18.9358 12.2521 18.7658 12.4221C18.5959 12.592 18.3654 12.6875 18.125 12.6875Z" fill="#72243D"/>
</svg>
