<svg width="20" height="20" viewBox="0 0 20 20" fill="none" xmlns="http://www.w3.org/2000/svg">
<path d="M18.3334 13.4915C18.3334 16.5248 16.5251 18.3332 13.4917 18.3332H12.5001C12.2791 18.3332 12.0671 18.2454 11.9108 18.0891C11.7545 17.9328 11.6667 17.7208 11.6667 17.4998V12.6915C11.6667 12.5824 11.7095 12.4777 11.7858 12.3998C11.8622 12.3219 11.966 12.277 12.0751 12.2748L13.5417 12.2498C13.5991 12.2459 13.6537 12.2235 13.6973 12.186C13.7409 12.1484 13.7711 12.0977 13.7834 12.0415L14.0751 10.4498C14.0812 10.4137 14.0793 10.3767 14.0695 10.3413C14.0597 10.306 14.0422 10.2733 14.0184 10.2454C13.9945 10.2176 13.9649 10.1954 13.9315 10.1803C13.898 10.1652 13.8617 10.1577 13.8251 10.1582L12.0501 10.1832C11.9401 10.1837 11.8342 10.1413 11.7549 10.0651C11.6755 9.98889 11.629 9.88478 11.6251 9.77484L11.5917 7.73317C11.5917 7.66687 11.6181 7.60328 11.665 7.55639C11.7119 7.50951 11.7754 7.48317 11.8417 7.48317L13.8417 7.44984C13.908 7.44984 13.9716 7.4235 14.0185 7.37661C14.0654 7.32973 14.0917 7.26614 14.0917 7.19984L14.0584 5.19984C14.0584 5.13353 14.0321 5.06994 13.9852 5.02306C13.9383 4.97618 13.8747 4.94984 13.8084 4.94984L11.5584 4.98317C11.2301 4.9886 10.9061 5.05865 10.6048 5.18932C10.3036 5.32 10.031 5.50874 9.80275 5.74477C9.57446 5.98079 9.39491 6.25948 9.27434 6.5649C9.15378 6.87033 9.09456 7.19652 9.10008 7.52484L9.14175 9.8165C9.14285 9.87122 9.13317 9.92563 9.11324 9.9766C9.09332 10.0276 9.06354 10.0741 9.02563 10.1136C8.98771 10.1531 8.94238 10.1847 8.89224 10.2066C8.8421 10.2286 8.78813 10.2404 8.73341 10.2415L7.73341 10.2582C7.66711 10.2582 7.60352 10.2845 7.55664 10.3314C7.50975 10.3783 7.48341 10.4419 7.48341 10.5082L7.50841 12.0915C7.50841 12.1578 7.53475 12.2214 7.58164 12.2683C7.62852 12.3152 7.69211 12.3415 7.75841 12.3415L8.75841 12.3248C8.86843 12.3243 8.97431 12.3667 9.05364 12.4429C9.13297 12.5191 9.17952 12.6232 9.18341 12.7332L9.25841 17.4832C9.26063 17.594 9.24071 17.7042 9.19983 17.8072C9.15894 17.9102 9.09791 18.0041 9.02031 18.0832C8.9427 18.1624 8.85009 18.2253 8.74788 18.2682C8.64567 18.3111 8.53593 18.3332 8.42508 18.3332H6.50841C3.47508 18.3332 1.66675 16.5248 1.66675 13.4832V6.50817C1.66675 3.47484 3.47508 1.6665 6.50841 1.6665H13.4917C16.5251 1.6665 18.3334 3.47484 18.3334 6.50817V13.4915Z" fill="#AD2C2C"/>
</svg>
