<svg width="20" height="20" viewBox="0 0 20 20" fill="none" xmlns="http://www.w3.org/2000/svg">
<path d="M13.4917 1.6665H6.50841C3.47508 1.6665 1.66675 3.47484 1.66675 6.50817V13.4832C1.66675 16.5248 3.47508 18.3332 6.50841 18.3332H13.4834C16.5167 18.3332 18.3251 16.5248 18.3251 13.4915V6.50817C18.3334 3.47484 16.5251 1.6665 13.4917 1.6665ZM10.0001 13.2332C9.36059 13.2332 8.73546 13.0435 8.20374 12.6883C7.67202 12.333 7.25759 11.828 7.01287 11.2372C6.76815 10.6464 6.70412 9.99625 6.82888 9.36905C6.95363 8.74184 7.26158 8.16572 7.71377 7.71353C8.16596 7.26134 8.74208 6.95339 9.36929 6.82863C9.99649 6.70387 10.6466 6.7679 11.2374 7.01263C11.8282 7.25735 12.3332 7.67177 12.6885 8.20349C13.0438 8.73521 13.2334 9.36034 13.2334 9.99984C13.2325 10.8571 12.8916 11.679 12.2854 12.2852C11.6792 12.8914 10.8573 13.2323 10.0001 13.2332ZM14.9334 5.73317C14.8911 5.83412 14.832 5.92712 14.7584 6.00817C14.6774 6.08171 14.5844 6.1409 14.4834 6.18317C14.3319 6.24811 14.1643 6.26615 14.0024 6.23495C13.8405 6.20376 13.6917 6.12477 13.5751 6.00817C13.5015 5.92712 13.4424 5.83412 13.4001 5.73317C13.3561 5.63338 13.3335 5.52554 13.3335 5.4165C13.3335 5.30747 13.3561 5.19963 13.4001 5.09984C13.4404 4.99785 13.4998 4.90451 13.5751 4.82484C13.6721 4.72876 13.7912 4.658 13.922 4.61876C14.0528 4.57953 14.1912 4.57303 14.3251 4.59984C14.3803 4.60756 14.4338 4.62446 14.4834 4.64984C14.5365 4.66805 14.587 4.69327 14.6334 4.72484C14.6771 4.7556 14.7188 4.78899 14.7584 4.82484C14.8337 4.90451 14.8931 4.99785 14.9334 5.09984C14.9774 5.19963 15 5.30747 15 5.4165C15 5.52554 14.9774 5.63338 14.9334 5.73317Z" fill="#AD2C2C"/>
</svg>
