<svg width="21" height="21" viewBox="0 0 21 21" fill="none" xmlns="http://www.w3.org/2000/svg">
<g clip-path="url(#clip0_56_118)">
<path d="M1.13024 10.5662L4.16371 12.7817L3.01167 16.3494C2.8255 16.9028 2.82314 17.5014 3.00495 18.0562C3.18676 18.611 3.543 19.0922 4.02056 19.428C4.48994 19.7747 5.05875 19.9603 5.64223 19.9574C6.22571 19.9545 6.79264 19.7631 7.25853 19.4118L10.2247 17.2288L13.1917 19.4093C13.6602 19.7539 14.226 19.9411 14.8076 19.9439C15.3892 19.9468 15.9567 19.7651 16.4286 19.4251C16.9005 19.085 17.2523 18.6041 17.4337 18.0515C17.615 17.4988 17.6164 16.9029 17.4377 16.3494L16.2856 12.7817L19.3191 10.5662C19.787 10.2241 20.1349 9.74289 20.3129 9.19127C20.491 8.63966 20.4902 8.04588 20.3107 7.49475C20.1311 6.94361 19.782 6.46332 19.3132 6.12246C18.8443 5.7816 18.2798 5.59762 17.7001 5.5968H13.9739L12.8432 2.07252C12.6654 1.51777 12.316 1.03383 11.8453 0.690476C11.3747 0.347125 10.8072 0.162109 10.2247 0.162109C9.64213 0.162109 9.07463 0.347125 8.60402 0.690476C8.1334 1.03383 7.784 1.51777 7.60618 2.07252L6.47545 5.5968H2.75264C2.17299 5.59762 1.60843 5.7816 1.1396 6.12246C0.670766 6.46332 0.321639 6.94361 0.142085 7.49475C-0.0374681 8.04588 -0.0382628 8.63966 0.139815 9.19127C0.317892 9.74289 0.665733 10.2241 1.13365 10.5662H1.13024Z" fill="#EFCA09"/>
</g>
<defs>
<clipPath id="clip0_56_118">
<rect width="20.4503" height="20.4503" fill="white"/>
</clipPath>
</defs>
</svg>
